<svg xmlns="http://www.w3.org/2000/svg" viewBox="0 0 3911.13 437.4"><g id="Layer_2" data-name="Layer 2"><g id="TypeMark"><path d="M345.12,136.86,253.69,368q-7.92,17.58-7.92,22.26,0,13.49,21.69,19v9.37H138.68v-9.37q19.65-3.81,19.65-19.92,0-4.39-8.22-26.08L35.48,68.26q-8.5-22-15.4-29.73T0,28.13V18.75H139v9.38q-18.47,4.1-18.46,17.28,0,6.75,4.69,19.34l79.09,211.62L290,63.57q5.56-13.76,5.57-18.16,0-13.47-19.63-17.28V18.75H421.25v9.38q-19.94,5.27-19.92,19,0,4.68,5,17.58l81.63,211.62L566.77,68.26q6.15-15.53,6.16-23.14,0-12.88-21.1-17V18.75H689.36v9.38q-14.67,4.1-20.24,10.54T654.46,68.26l-114.63,295q-8.21,21.09-8.21,28.13,0,14.35,20.81,17.87v9.37H422v-9.37q20.5-3.22,20.51-19.63,0-5.56-9.09-26.37Z"/><path d="M920.36,11.72q104.65,0,165.93,56.54,64.79,59.19,64.78,152.93,0,57.42-31.07,107.23-60.69,97.26-199,97.26-103.79,0-165.05-56.54a197,197,0,0,1-49.84-72.36,207.78,207.78,0,0,1-14.95-78.23q0-60,30.78-109.86Q780.81,13.49,920.36,11.72Zm.29,68q-57.18,0-95.31,33.94-45.17,40.11-45.16,105.07t45.16,105.07q38.11,33.94,95.9,33.94t95.61-33.94a133.42,133.42,0,0,0,34.61-49.46A142.27,142.27,0,0,0,1062,220.46q0-67.89-45.16-106.83Q978.42,80.29,920.65,79.69Z"/><path d="M1319.82,352.73h245.81q9.07,0,13.76-4.1T1587,334h9.38V437.4H1587q-2.92-10.54-7.62-14.65t-13.76-4.1H1213.77v-9.37q10.55-2.92,14.65-7.62t4.1-13.77V49.51q0-9.07-4.1-13.77t-14.65-7.61V18.75h124.8v9.38q-10.54,2.63-14.64,7.47t-4.11,13.91Z"/><path d="M1744.34,243.75V387.89q0,9.09,4.24,13.92t14.51,7.47v9.37H1638.28v-9.37q10.54-2.92,14.65-7.62t4.1-13.77V49.51q0-9.07-4.1-13.77t-14.65-7.61V18.75h353.91q8.79,0,13.47-4T2013.28,0h9.38V103.42h-9.38q-2.92-10.71-7.62-14.73t-13.47-4H1744.34v95.51h162q9.08,0,13.77-4.18t7.61-14.57h9.38V262.5h-9.38q-2.93-10.41-7.61-14.58t-13.77-4.17Z"/><path d="M2462.4,281.25l55.67,83.35-7.62,5.29q-8.2-7.63-13.48-7.63t-29.59,14.09q-50.39,29.07-84.81,39.2t-81.89,10.13q-94.63,0-155.27-44.82a188.54,188.54,0,0,1-56.25-64.75q-23.73-44.24-23.73-97.56,0-72.65,42.48-126.26Q2171.78,11.72,2301,11.72q47.46,0,81.44,10t85,39.26Q2491.7,74.71,2497,74.71t13.48-7.62l7.62,5.27-55.67,83.5-7.91-5.26a65.09,65.09,0,0,0,.59-7.87q0-8.46-7.33-15.91t-26.07-17.95q-51.85-29.18-109.86-29.18-68.57,0-109.28,34.24Q2154.48,154,2154.49,218.7t48.05,104.77q40.71,34.25,109.28,34.24,58,0,109.86-29.29,18.75-10.55,26.07-18t7.33-16a58.93,58.93,0,0,0-.59-7.61Z"/><path d="M2863.16,316.7H2681.4L2654.48,373q-5.57,11.71-5.56,18.46,0,12.88,19.59,17.87v9.37H2536.23v-9.37q11.71-2.34,17.87-8.21t14.06-22.85L2715.23,70.9q7-14.65,7-23.44,0-13.47-17-19.33V18.75h141.8v9.38q-17.3,5-17.28,17.28,0,8.51,5.56,19.34L2987.7,373q9.66,19.64,17,26.81t19.63,9.52v9.37H2877.1v-9.37q19.4-3.22,19.4-18.17,0-6.15-5.86-18.16ZM2838,261.91l-64.85-142.45-65.9,142.45Z"/><path d="M3164.36,256.35V388.18q0,8.79,4.24,13.63t14.51,7.47v9.37H3058.3v-9.37q10.54-2.92,14.65-7.62t4.1-13.48V49.51q0-9.07-4.1-13.77t-14.65-7.61V18.75h249.61q43.65,0,69.29,5.86a121.84,121.84,0,0,1,45.26,20.21q20.22,15,31.64,39.26a127.59,127.59,0,0,1,11.43,53.32q0,40.44-21.68,70.9a101.52,101.52,0,0,1-49.66,37.06q-30.92,11-86.28,11Zm0-65.92h133.3q39.84,0,56-8.5,10.26-5.55,16.56-17.72a57.49,57.49,0,0,0,6.29-26.81,56.88,56.88,0,0,0-6.29-26.51q-6.32-12.15-16.56-17.73-15.81-8.49-56-8.49h-133.3Z"/><path d="M3623.44,243.16V352.73h257.22q8.79,0,13.48-4.1t7.62-14.65h9.37V437.4h-9.37q-2.94-10.54-7.62-14.65t-13.48-4.1H3517.38v-9.37q10.54-2.92,14.65-7.62t4.1-13.77V49.51q0-9.07-4.1-13.77t-14.65-7.61V18.75h356.25q8.79,0,13.48-4.18T3894.73,0h9.37V103.42h-9.37q-2.94-10.42-7.62-14.59t-13.48-4.16H3623.44v94.92h162.3q8.79,0,13.48-4.1t7.62-14.65h9.37V261.91h-9.37q-2.94-10.25-7.62-14.5t-13.48-4.25Z"/></g></g></svg>